<mxfile host="app.diagrams.net" modified="2023-04-13T06:38:25.173Z" agent="Mozilla/5.0 (Windows NT 10.0; Win64; x64) AppleWebKit/537.36 (KHTML, like Gecko) Chrome/113.0.0.0 Safari/537.36" version="21.1.7" etag="05GNDDFj6iLfPZBOOoRn" type="github">
  <diagram name="페이지-1" id="m_JLicLS23efvxiufbGm">
    <mxGraphModel>
      <root>
        <mxCell id="0" />
        <mxCell id="1" parent="0" />
      </root>
    </mxGraphModel>
  </diagram>
</mxfile>
